<svg width="85" height="85" viewBox="0 0 85 85" fill="none" xmlns="http://www.w3.org/2000/svg">
<g clip-path="url(#clip0_670_1006)">
<path d="M31.875 74.375H17.7083C15.8297 74.375 14.028 73.6287 12.6997 72.3003C11.3713 70.972 10.625 69.1703 10.625 67.2917V17.7083C10.625 15.8297 11.3713 14.028 12.6997 12.6997C14.028 11.3713 15.8297 10.625 17.7083 10.625H67.2917C69.1703 10.625 70.972 11.3713 72.3003 12.6997C73.6287 14.028 74.375 15.8297 74.375 17.7083V67.2917C74.375 69.1703 73.6287 70.972 72.3003 72.3003C70.972 73.6287 69.1703 74.375 67.2917 74.375H49.5833M31.875 10.625V35.4167M74.375 35.4167H49.5833M10.625 53.125H42.5" stroke="#DC5C0C" stroke-width="5" stroke-linecap="round" stroke-linejoin="round"/>
</g>
<defs>
<clipPath id="clip0_670_1006">
<rect width="85" height="85" fill="white"/>
</clipPath>
</defs>
</svg>
