<svg width="75" height="75" viewBox="0 0 75 75" fill="none" xmlns="http://www.w3.org/2000/svg">
<path d="M2.5 0C2.5 -1.38071 1.38071 -2.5 0 -2.5C-1.38071 -2.5 -2.5 -1.38071 -2.5 0L0 0L2.5 0ZM-2.5 12.5C-2.5 13.8807 -1.38071 15 0 15C1.38071 15 2.5 13.8807 2.5 12.5L0 12.5L-2.5 12.5ZM27.5 0C27.5 -1.38071 26.3807 -2.5 25 -2.5C23.6193 -2.5 22.5 -1.38071 22.5 0L25 0L27.5 0ZM22.5 12.5C22.5 13.8807 23.6193 15 25 15C26.3807 15 27.5 13.8807 27.5 12.5L25 12.5L22.5 12.5ZM0 0L-2.5 0L-2.5 12.5L0 12.5L2.5 12.5L2.5 0L0 0ZM25 0L22.5 0L22.5 12.5L25 12.5L27.5 12.5L27.5 0L25 0Z" fill="#DC5C0C" transform="translate(25.00 6.25)"/>
<path d="M6.25 0L6.25 2.5L50 2.5L50 0L50 -2.5L6.25 -2.5L6.25 0ZM50 0L50 2.5C52.0711 2.5 53.75 4.17893 53.75 6.25L56.25 6.25L58.75 6.25C58.75 1.41751 54.8325 -2.5 50 -2.5L50 0ZM56.25 6.25L53.75 6.25L53.75 50L56.25 50L58.75 50L58.75 6.25L56.25 6.25ZM56.25 50L53.75 50C53.75 52.0711 52.0711 53.75 50 53.75L50 56.25L50 58.75C54.8325 58.75 58.75 54.8325 58.75 50L56.25 50ZM50 56.25L50 53.75L6.25 53.75L6.25 56.25L6.25 58.75L50 58.75L50 56.25ZM6.25 56.25L6.25 53.75C4.17893 53.75 2.5 52.0711 2.5 50L0 50L-2.5 50C-2.5 54.8325 1.41751 58.75 6.25 58.75L6.25 56.25ZM0 50L2.5 50L2.5 6.25L0 6.25L-2.5 6.25L-2.5 50L0 50ZM0 6.25L2.5 6.25C2.5 4.17893 4.17893 2.5 6.25 2.5L6.25 0L6.25 -2.5C1.41751 -2.5 -2.5 1.41751 -2.5 6.25L0 6.25Z" fill="#DC5C0C" transform="translate(9.38 12.50)"/>
<path d="M0 -2.5C-1.38071 -2.5 -2.5 -1.38071 -2.5 0C-2.5 1.38071 -1.38071 2.5 0 2.5L0 0L0 -2.5ZM56.25 2.5C57.6307 2.5 58.75 1.38071 58.75 0C58.75 -1.38071 57.6307 -2.5 56.25 -2.5L56.25 0L56.25 2.5ZM15.625 10C14.2443 10 13.125 11.1193 13.125 12.5C13.125 13.8807 14.2443 15 15.625 15L15.625 12.5L15.625 10ZM15.6563 15C17.037 15 18.1562 13.8807 18.1562 12.5C18.1562 11.1193 17.037 10 15.6563 10L15.6563 12.5L15.6563 15ZM28.125 10C26.7443 10 25.625 11.1193 25.625 12.5C25.625 13.8807 26.7443 15 28.125 15L28.125 12.5L28.125 10ZM28.1562 15C29.537 15 30.6562 13.8807 30.6562 12.5C30.6562 11.1193 29.537 10 28.1562 10L28.1562 12.5L28.1562 15ZM40.625 10C39.2443 10 38.125 11.1193 38.125 12.5C38.125 13.8807 39.2443 15 40.625 15L40.625 12.5L40.625 10ZM40.6562 15C42.037 15 43.1562 13.8807 43.1562 12.5C43.1562 11.1193 42.037 10 40.6562 10L40.6562 12.5L40.6562 15ZM15.625 22.5C14.2443 22.5 13.125 23.6193 13.125 25C13.125 26.3807 14.2443 27.5 15.625 27.5L15.625 25L15.625 22.5ZM15.6563 27.5C17.037 27.5 18.1562 26.3807 18.1562 25C18.1562 23.6193 17.037 22.5 15.6563 22.5L15.6563 25L15.6563 27.5ZM28.125 22.5C26.7443 22.5 25.625 23.6193 25.625 25C25.625 26.3807 26.7443 27.5 28.125 27.5L28.125 25L28.125 22.5ZM28.1562 27.5C29.537 27.5 30.6562 26.3807 30.6562 25C30.6562 23.6193 29.537 22.5 28.1562 22.5L28.1562 25L28.1562 27.5ZM40.625 22.5C39.2443 22.5 38.125 23.6193 38.125 25C38.125 26.3807 39.2443 27.5 40.625 27.5L40.625 25L40.625 22.5ZM40.6562 27.5C42.037 27.5 43.1562 26.3807 43.1562 25C43.1562 23.6193 42.037 22.5 40.6562 22.5L40.6562 25L40.6562 27.5ZM0 0L0 2.5L56.25 2.5L56.25 0L56.25 -2.5L0 -2.5L0 0ZM15.625 12.5L15.625 15L15.6563 15L15.6563 12.5L15.6563 10L15.625 10L15.625 12.5ZM28.125 12.5L28.125 15L28.1562 15L28.1562 12.5L28.1562 10L28.125 10L28.125 12.5ZM40.625 12.5L40.625 15L40.6562 15L40.6562 12.5L40.6562 10L40.625 10L40.625 12.5ZM15.625 25L15.625 27.5L15.6563 27.5L15.6563 25L15.6563 22.5L15.625 22.5L15.625 25ZM28.125 25L28.125 27.5L28.1562 27.5L28.1562 25L28.1562 22.5L28.125 22.5L28.125 25ZM40.625 25L40.625 27.5L40.6562 27.5L40.6562 25L40.6562 22.5L40.625 22.5L40.625 25Z" fill="#DC5C0C" transform="translate(9.38 31.25)"/>
</svg>
